<?xml version="1.0" encoding="UTF-8"?>
<svg width="32" height="32" viewBox="0 0 32 32" fill="none" xmlns="http://www.w3.org/2000/svg">
  <!-- Background circle with gradient -->
  <defs>
    <linearGradient id="grad" x1="0%" y1="0%" x2="100%" y2="100%">
      <stop offset="0%" style="stop-color:#f2a900;stop-opacity:1" />
      <stop offset="100%" style="stop-color:#ff8e3c;stop-opacity:1" />
    </linearGradient>
  </defs>
  
  <!-- Outer circle with shadow -->
  <circle cx="16" cy="16" r="15" fill="url(#grad)"/>
  <circle cx="16" cy="16" r="14" stroke="rgba(0,0,0,0.1)" stroke-width="1"/>
  
  <!-- Bitcoin symbol with improved visibility -->
  <path d="M21.5 14.5c.3-2-1.3-3-3.5-3.3v-1.2h-2v1.2c-.5 0-1 0-1.5.1v-1.3h-2v1.2c-1.3.3-2.5.8-2.5 2.5 0 2 1.5 2.5 3.5 3.3 2 .8 2.5 1.5 2.5 2.3 0 1.3-1 2-2.5 2.3v1.2h2v-1.2c.5 0 1 0 1.5-.1v1.3h2v-1.2c1.3-.3 2.5-.8 2.5-2.5 0-2-1.5-2.5-3.5-3.3-2-.8-2.5-1.5-2.5-2.3 0-1.3 1-2 2.5-2.3zm-4.5 4.5c0 1-1 1.5-2 1.8v-3.5c1 .3 2 .8 2 1.7zm-2-4.5c-1 .3-2 .8-2 1.5 0 1 1 1.5 2 1.8v-3.3z" 
        fill="#000" 
        stroke="#000" 
        stroke-width="0.5" 
        stroke-linejoin="round"/>
</svg> 